<?xml version="1.0" encoding="UTF-8"?>
<svg version="1.1" xmlns="http://www.w3.org/2000/svg" width="128" height="128">
<path d="M0 0 C14.17655683 10.9067318 23.8805523 24.2307835 27.5234375 41.94140625 C27.93447255 45.91110468 28.00106196 49.82771389 27.9609375 53.81640625 C27.95408936 54.86779785 27.94724121 55.91918945 27.94018555 57.00244141 C27.77551698 64.97930731 26.79466043 71.5945613 23.5234375 78.94140625 C23.16121094 79.81410156 22.79898438 80.68679687 22.42578125 81.5859375 C15.5034001 96.86210742 2.88305915 107.91076701 -12.48046875 114.1640625 C-27.81040012 119.85920345 -46.31258039 120.6932523 -61.4765625 113.94140625 C-62.34925781 113.57917969 -63.22195312 113.21695313 -64.12109375 112.84375 C-78.68730163 106.24308744 -90.51094267 93.72880412 -96.69921875 79.0390625 C-102.49226957 63.57016337 -103.27831117 44.21746475 -96.4765625 28.94140625 C-96.11433594 28.06871094 -95.75210938 27.19601563 -95.37890625 26.296875 C-88.77824369 11.73066712 -76.26396037 -0.09297392 -61.57421875 -6.28125 C-41.55310756 -13.77908895 -17.77211085 -12.35508607 0 0 Z " fill="#F29943" transform="translate(100.4765625,10.05859375)"/>
<path d="M0 0 C3.50719762 2.30195544 5.74588491 4.25163987 8.0859375 7.76171875 C10.71672791 7.97438445 10.71672791 7.97438445 13.7109375 7.69921875 C19.4324964 7.58273192 23.59555233 8.03874352 28.0859375 11.76171875 C31.00854953 15.18453333 32.92844415 18.24978258 33.3984375 22.76171875 C33.2953125 23.42171875 33.1921875 24.08171875 33.0859375 24.76171875 C33.6428125 24.82359375 34.1996875 24.88546875 34.7734375 24.94921875 C39.10304074 26.4704307 41.60906018 30.04640277 44.0859375 33.76171875 C44.90617141 39.35422269 44.31020456 44.03279373 41.0859375 48.76171875 C36.43704688 53.44871503 32.71771654 54.87861629 26.1809082 54.9387207 C24.35805046 54.95797356 24.35805046 54.95797356 22.49836731 54.97761536 C21.18277328 54.98500229 19.86717926 54.99238922 18.51171875 55 C17.50479508 55.00611329 17.50479508 55.00611329 16.47752953 55.01235008 C12.92162766 55.03319667 9.36576417 55.04750217 5.80981445 55.05688477 C2.15258021 55.06792219 -1.50404106 55.10229412 -5.16105938 55.14205647 C-7.98624228 55.1683176 -10.81128151 55.17658512 -13.6365757 55.18016624 C-15.6350588 55.18735355 -17.63344332 55.21375479 -19.63175964 55.24055481 C-28.56245953 55.21933029 -33.97903246 54.19440453 -40.8515625 48.19921875 C-44.11473264 44.34274495 -44.25835249 40.89704821 -44.1953125 36.04296875 C-43.61466036 31.33323474 -40.78877408 28.59157333 -37.4765625 25.44921875 C-34.8570357 23.72416452 -33.00445264 23.11490619 -29.9140625 22.76171875 C-30.2440625 22.10171875 -30.5740625 21.44171875 -30.9140625 20.76171875 C-31.45766696 15.80689781 -31.47843324 11.89046023 -29.2265625 7.38671875 C-21.65351499 -1.20971356 -10.96399464 -4.65896287 0 0 Z " fill="#FDF7E2" transform="translate(64.9140625,32.23828125)"/>
<path d="M0 0 C6.0328111 5.03735436 11.81143425 10.32792166 17.46459961 15.78491211 C18.53565766 16.80884033 19.61725919 17.82184512 20.70874023 18.82397461 C29.76137728 27.15120973 29.76137728 27.15120973 30.32617188 31.52709961 C29.834291 33.92451698 29.1003777 35.81957679 28 38 C27.59523438 39.04027344 27.19046875 40.08054688 26.7734375 41.15234375 C17.72839902 59.1666243 4.6592889 70.22515541 -14.1015625 77.23828125 C-15.05804688 77.48964844 -16.01453125 77.74101563 -17 78 C-17.62630814 78.20219147 -18.25261627 78.40438293 -18.89790344 78.61270142 C-21.47889318 79.21540953 -23.36420952 79.37723991 -26 79 C-29.90108327 76.51472592 -32.90317818 73.26055974 -36.06640625 69.91015625 C-36.98590561 68.97650742 -37.90540497 68.04285858 -38.85276794 67.08091736 C-41.28722848 64.60842669 -43.69016046 62.10740755 -46.08758545 59.59906006 C-48.54318274 57.04082866 -51.02763855 54.51096681 -53.50976562 51.97851562 C-58.36834873 47.01295611 -63.1941886 42.01663663 -68 37 C-65 36 -65 36 -62 37 C-60.02307319 37.10382495 -58.0428439 37.14857849 -56.06323242 37.16113281 C-54.2306916 37.17554413 -54.2306916 37.17554413 -52.36112976 37.19024658 C-51.02591133 37.1950951 -49.69069072 37.19937379 -48.35546875 37.203125 C-46.9840749 37.20887978 -45.61268106 37.21463747 -44.24128723 37.22039795 C-41.36552558 37.23089922 -38.4897918 37.23674737 -35.61401367 37.24023438 C-31.93875988 37.24571271 -28.26387776 37.26972982 -24.58874035 37.29820633 C-21.75506025 37.31688179 -18.92146874 37.32204094 -16.08773232 37.32357025 C-14.07701448 37.32804916 -12.06634415 37.34667271 -10.05570984 37.36553955 C-8.2089843 37.3610379 -8.2089843 37.3610379 -6.32495117 37.35644531 C-5.24590012 37.36009094 -4.16684906 37.36373657 -3.05509949 37.36749268 C1.7836738 36.78544494 5.02067559 35.05872909 8.3125 31.5 C11.42308264 26.89172942 11.65531993 22.39946704 11 17 C9.06535218 12.9818853 7.92657582 11.39969937 3.8125 9.625 C1 8 1 8 0.39453125 6.04296875 C0.1523627 4.03893627 0.06614843 2.01752725 0 0 Z " fill="#C3762E" transform="translate(97,49)"/>
</svg>
